<svg version="1.1" id="Layer_1" xmlns="http://www.w3.org/2000/svg" xmlns:xlink="http://www.w3.org/1999/xlink" x="0px" y="0px"
	 width="100%" viewBox="0 0 492 492" enable-background="new 0 0 492 492" xml:space="preserve">
<path fill="#FF671F" opacity="1.000000" stroke="none" 
	d="
M216.703674,1.242436 
	C236.687561,1.000000 256.375122,1.000000 276.531342,1.000000 
	C281.633789,2.932520 286.596832,2.102552 291.393158,2.664552 
	C307.715607,4.577108 323.181732,9.542276 338.378967,15.499380 
	C374.645264,29.715296 405.864044,51.377663 431.898956,80.243408 
	C461.245789,112.781151 480.610687,150.634048 490.101105,193.460587 
	C491.700012,200.675659 491.295197,208.136536 492.757568,215.703781 
	C493.000000,236.354233 493.000000,256.708466 493.000000,277.531342 
	C491.257019,282.158447 491.813873,286.606293 491.387329,290.928406 
	C489.954407,305.447876 485.654724,319.263153 480.671661,332.842255 
	C471.198914,358.655945 457.986053,382.423584 440.473694,403.692596 
	C420.946899,427.408173 398.233551,447.381012 371.401733,462.588074 
	C349.386292,475.065460 326.186920,484.389709 301.483490,489.915375 
	C293.623322,491.673553 285.522003,491.330231 277.296234,492.757568 
	C257.312439,493.000000 237.624878,493.000000 217.468658,493.000000 
	C212.504791,491.142273 207.713699,491.937408 203.065369,491.461823 
	C188.391541,489.960632 174.447723,485.563171 160.724808,480.501190 
	C134.914963,470.980804 111.141037,457.734985 89.905975,440.189789 
	C64.369934,419.091034 43.249939,394.303009 27.698824,364.892670 
	C16.975031,344.611847 8.982898,323.360260 3.932809,300.987091 
	C2.267252,293.608246 2.882707,285.993164 1.242440,278.296326 
	C1.000000,257.645782 1.000000,237.291550 1.000000,216.468658 
	C2.734176,211.840958 2.232723,207.399612 2.599326,203.073593 
	C3.847087,188.349594 8.509003,174.482468 13.502711,160.756836 
	C24.026901,131.830170 39.423809,105.633530 59.840263,82.641266 
	C79.079666,60.974564 101.282387,42.733261 126.880371,28.889763 
	C146.587372,18.232134 167.240814,10.032948 189.097916,4.840988 
	C198.119583,2.697969 207.333267,2.812793 216.703674,1.242436 
z"/>
<path fill="#000000" opacity="1.000000" stroke="none" 
	d="
M493.000000,215.531342 
	C490.724365,217.028412 491.157959,215.098526 491.035950,214.075439 
	C487.324493,182.955063 477.243622,153.917160 462.141479,126.587852 
	C454.073761,111.988228 444.363464,98.525581 433.462372,85.844017 
	C418.541351,68.485992 401.595062,53.497925 382.464020,41.050343 
	C356.314514,24.036238 328.103424,11.868026 297.332916,5.913330 
	C291.077332,4.702751 284.916595,3.038579 278.492310,2.968018 
	C277.564941,2.957832 276.962677,2.433293 276.726318,1.371127 
	C347.594879,1.000000 418.189819,1.037092 488.784424,0.894916 
	C492.471558,0.887491 493.097992,1.755278 493.091797,5.276168 
	C492.968719,75.204842 493.000000,145.133789 493.000000,215.531342 
z"/>
<path fill="#000000" opacity="1.000000" stroke="none" 
	d="
M277.468658,493.000000 
	C276.110809,491.220093 277.523834,491.144897 278.569885,491.047729 
	C299.980286,489.058380 320.340302,483.119995 340.196289,475.065948 
	C360.087463,466.997620 378.532593,456.446716 395.774963,443.721802 
	C408.196228,434.554932 419.421112,424.004852 429.730286,412.609833 
	C448.024780,392.388489 462.494537,369.676117 473.338379,344.531250 
	C480.917847,326.955841 485.808502,308.696350 489.875641,290.134430 
	C490.802521,285.904358 490.180145,281.362854 492.656006,277.672089 
	C493.000000,348.261871 492.962616,418.523834 493.105286,488.785431 
	C493.112793,492.475342 492.240936,493.097656 488.722839,493.091522 
	C418.461151,492.968933 348.199219,493.000000 277.468658,493.000000 
z"/>
<path fill="#000000" opacity="1.000000" stroke="none" 
	d="
M216.531342,1.000000 
	C217.726028,3.133332 216.057129,2.854441 214.931137,2.978593 
	C175.242966,7.354579 139.442947,22.072577 106.570023,44.220570 
	C90.226166,55.232170 75.565849,68.417984 62.534641,83.137337 
	C38.906101,109.826851 21.846304,140.431824 11.324281,174.502258 
	C7.297103,187.542313 3.880021,200.815872 2.915750,214.556015 
	C2.866334,215.260132 2.132220,215.916199 1.358447,216.297318 
	C1.000000,145.738098 1.037374,75.476135 0.894678,5.214531 
	C0.887184,1.524523 1.759173,0.902339 5.277209,0.908476 
	C75.538872,1.031034 145.800812,1.000000 216.531342,1.000000 
z"/>
<path fill="#000000" opacity="1.000000" stroke="none" 
	d="
M1.000000,278.468658 
	C3.275830,276.971588 2.846884,278.901886 2.963306,279.924652 
	C6.511685,311.096771 16.872850,340.032410 31.846426,367.411652 
	C39.616940,381.620056 48.983665,394.727783 59.503639,407.074738 
	C83.311295,435.016846 111.991211,456.452637 145.314789,471.627625 
	C163.097244,479.725464 181.675339,485.475677 200.928650,489.140472 
	C206.460571,490.193451 212.279190,489.829163 217.273254,492.628723 
	C146.405121,493.000000 75.810165,492.962952 5.215570,493.105133 
	C1.528451,493.112549 0.902030,492.244720 0.908226,488.723846 
	C1.031281,418.795166 1.000000,348.866211 1.000000,278.468658 
z"/>
<path fill="#FFFEFD" opacity="1.000000" stroke="none" 
	d="
M219.510193,213.457306 
	C233.844482,247.649170 247.997513,281.502808 262.415741,315.990753 
	C250.431351,315.990753 239.158615,315.967041 227.886139,316.010071 
	C225.532440,316.019043 225.437500,314.152100 224.847534,312.696411 
	C221.350204,304.067017 217.760193,295.471832 214.471130,286.763245 
	C213.318268,283.710785 211.887497,282.387543 208.387390,282.421356 
	C188.894104,282.609650 169.397751,282.564178 149.903244,282.456207 
	C146.980988,282.440033 145.439240,283.307281 144.384293,286.151184 
	C141.089233,295.033844 137.382858,303.763702 134.072235,312.640961 
	C133.100174,315.247437 131.825180,316.134399 129.027206,316.076569 
	C119.700203,315.883850 110.360382,315.800995 101.038544,316.093170 
	C96.678207,316.229858 96.455276,315.094818 98.005409,311.412628 
	C117.164413,265.902191 136.191132,220.336090 155.259430,174.787476 
	C158.084213,168.039871 161.077637,161.358994 163.728409,154.544312 
	C164.773087,151.858658 166.048889,150.642700 169.108994,150.752411 
	C175.931854,150.997040 182.773849,150.970657 189.598984,150.760391 
	C192.389572,150.674423 193.738113,151.650909 194.780853,154.180038 
	C202.892700,173.855591 211.130249,193.479309 219.510193,213.457306 
z"/>
<path fill="#010100" opacity="1.000000" stroke="none" 
	d="
M336.017456,198.869812 
	C382.119965,198.020935 406.512207,246.748703 389.447327,284.335846 
	C376.192047,313.531982 348.830566,323.275116 317.123108,315.261780 
	C309.862762,313.426910 303.227295,310.000000 296.907440,306.146820 
	C296.515533,306.590027 296.174652,306.793579 296.144653,307.035675 
	C295.032959,316.002167 295.036865,316.002655 285.803925,316.002655 
	C274.893280,316.002655 274.892700,316.002655 274.892609,305.256256 
	C274.892303,252.963058 274.937408,200.669754 274.803589,148.376907 
	C274.793243,144.345581 275.647858,142.855301 279.945862,143.058365 
	C287.589600,143.419525 295.266602,143.303696 302.921570,143.092422 
	C306.163666,143.002945 307.176239,143.943573 307.139099,147.268768 
	C306.947540,164.420441 307.132111,181.576797 306.879608,198.727005 
	C306.815613,203.074677 307.922577,203.623184 311.914368,202.449631 
	C319.584900,200.194550 327.508087,199.058731 336.017456,198.869812 
z"/>
<path fill="#FF6C26" opacity="1.000000" stroke="none" 
	d="
M178.000580,251.525513 
	C172.334518,251.523834 167.167648,251.480469 162.001938,251.539581 
	C159.692322,251.565979 158.561234,251.272003 159.729126,248.468353 
	C165.995850,233.424530 172.102737,218.314133 178.277298,203.231842 
	C178.462387,202.779724 178.785095,202.383942 179.364349,201.438370 
	C186.076981,217.625046 192.464478,233.099335 198.925949,248.542664 
	C200.089828,251.324371 198.719604,251.565994 196.499054,251.542908 
	C190.500046,251.480515 184.499924,251.524048 178.000580,251.525513 
z"/>
<path fill="#FD661F" opacity="1.000000" stroke="none" 
	d="
M306.958435,259.902283 
	C306.203857,247.123978 310.079102,236.916031 321.422821,231.054138 
	C338.644318,222.154861 358.356506,232.926392 360.906006,252.344498 
	C362.278809,262.800262 360.962646,272.731964 353.277924,280.683929 
	C345.743591,288.480286 332.860809,291.061462 323.280975,286.657990 
	C312.176483,281.553741 307.006927,272.486938 306.958435,259.902283 
z"/>
</svg>