<svg id="Capa_1" enable-background="new 0 0 512 512" height="24" viewBox="0 0 512 512" width="24" xmlns="http://www.w3.org/2000/svg"><g><g><path d="m317.467 255.416c3.776 1.706 8.217.031 9.924-3.745 1.706-3.774.029-8.217-3.745-9.923l-77.603-35.078c-.066-.03-.134-.06-.201-.088-3.508-1.462-7.513-.671-10.199 2.021s-3.471 6.696-1.999 10.203c.023.055.047.11.072.165l34.881 77.796c1.248 2.783 3.983 4.434 6.848 4.434 1.025 0 2.068-.212 3.064-.658 3.78-1.694 5.47-6.133 3.775-9.912l-6.573-14.659 27.155-27.155zm-48.323 5.909-15.605-34.805 34.718 15.693z"/><path d="m342.023 234.568c1.919 0 3.839-.732 5.303-2.196l20.01-20.01c2.929-2.93 2.929-7.678 0-10.607-2.929-2.928-7.678-2.928-10.606 0l-14.707 14.707-51.792-51.792c-2.929-2.928-7.678-2.928-10.606 0-2.929 2.93-2.929 7.678 0 10.607l57.095 57.095c1.464 1.463 3.383 2.196 5.303 2.196z"/><path d="m229.934 346.705c1.919 0 3.839-.732 5.303-2.196l24.078-24.077c2.929-2.93 2.929-7.678 0-10.607-2.929-2.928-7.678-2.928-10.606 0l-18.774 18.774-17.965-17.965 16.999-16.999c2.929-2.93 2.929-7.678 0-10.607-2.929-2.928-7.678-2.928-10.606 0l-16.999 17-17.965-17.965 18.774-18.774c2.929-2.93 2.929-7.678 0-10.607-2.929-2.928-7.678-2.928-10.606 0l-24.078 24.078c-2.929 2.93-2.929 7.678 0 10.607l57.143 57.143c1.463 1.462 3.382 2.195 5.302 2.195z"/><path d="m123.119 321.126-16.184 16.186c-1.408 1.408-2.199 3.318-2.197 5.31s.796 3.9 2.207 5.307c0 0 22.024 21.941 28.54 28.457 7.855 7.854 28.52 28.373 28.728 28.579 1.405 1.396 3.305 2.178 5.284 2.178h.028c1.989-.008 3.894-.805 5.295-2.217.487-.49 11.97-12.063 16.488-16.741 15.835-16.398 13.339-42.288-5.935-61.562-20.26-20.262-45.279-22.472-62.254-5.497zm51.648 16.102c0 .001 0 .001 0 0 11.001 11 17.492 28.377 5.751 40.535-2.497 2.586-7.307 7.463-11.065 11.264-6.713-6.67-18.017-17.905-23.362-23.25-4.48-4.479-16.287-16.247-23.237-23.173l10.871-10.871c13.106-13.104 29.793-5.752 41.042 5.495z"/><path d="m512 38.814c0-10.366-4.039-20.113-11.372-27.446-15.134-15.133-39.758-15.133-54.892 0-2.11 2.11-8.444 8.448-55.959 79.764l-93.727-31.239c-20.249-6.751-42.202-1.571-57.296 13.522l-63.25 63.25c-2.929 2.93-2.929 7.678 0 10.607 2.929 2.928 7.678 2.928 10.606 0l63.25-63.25c11.049-11.05 27.122-14.841 41.945-9.898l26.97 8.989-274.538 274.538-25.016-25.016c-2.4-2.4-3.721-5.59-3.721-8.982 0-3.393 1.321-6.582 3.721-8.982l142.64-142.651c2.929-2.929 2.928-7.678 0-10.606-2.93-2.928-7.677-2.929-10.607.001l-142.64 142.649c-5.232 5.232-8.114 12.19-8.114 19.589 0 7.398 2.881 14.355 8.114 19.589l160.64 160.64c5.401 5.4 12.494 8.101 19.588 8.101 7.093-.001 14.188-2.701 19.587-8.101l41-40.99c2.929-2.929 2.93-7.677.001-10.606-2.928-2.929-7.677-2.93-10.606-.001l-41.001 40.99c-4.952 4.954-13.01 4.953-17.963 0l-25.037-25.037 230.119-230.128c2.929-2.929 2.929-7.678 0-10.606s-7.678-2.929-10.606.001l-230.118 230.127-89.374-89.374 279.843-279.844 46.987 15.661c-11.038 16.648-20.783 31.499-26.403 40.087l-.612-.612c-2.929-2.928-7.678-2.928-10.606 0-2.929 2.93-2.929 7.678 0 10.607l14.286 14.286c1.464 1.464 3.384 2.196 5.303 2.196s3.839-.732 5.303-2.196c2.929-2.93 2.929-7.678 0-10.607l-2.838-2.838c5.479-8.382 17.119-26.143 30.284-45.971 3.447 1.38 6.173 4.223 7.353 7.762l20.325 60.982-24.983 24.983c-2.929 2.93-2.929 7.678 0 10.607 1.464 1.464 3.384 2.196 5.303 2.196s3.839-.732 5.303-2.196l19.68-19.68 9.002 27.01c4.943 14.822 1.15 30.895-9.899 41.943l-164.91 164.9c-2.929 2.929-2.929 7.678 0 10.606 1.465 1.465 3.384 2.197 5.304 2.197 1.919 0 3.839-.732 5.303-2.196l164.91-164.9c15.093-15.094 20.275-37.049 13.522-57.295l-31.242-93.736c47.299-31.496 74.129-50.314 79.767-55.952 7.332-7.332 11.371-17.079 11.371-27.444zm-21.978 16.838c-2.228 2.229-13.995 11.746-74.433 52.047-2.576-4.775-6.522-8.72-11.299-11.296 38.862-58.255 49.31-71.687 52.052-74.429 9.286-9.287 24.395-9.284 33.679 0 4.5 4.499 6.978 10.48 6.978 16.839.001 6.359-2.478 12.339-6.977 16.839z"/></g></g></svg>