<svg id="Layer_1" enable-background="new 0 0 100 100" height="24" viewBox="0 0 100 100" width="24" xmlns="http://www.w3.org/2000/svg"><g><path d="m41.293 32.014c-3.782 0-6.858 3.077-6.858 6.858s3.077 6.858 6.858 6.858 6.858-3.077 6.858-6.858-3.076-6.858-6.858-6.858zm0 10.717c-2.127 0-3.858-1.731-3.858-3.858s1.731-3.858 3.858-3.858 3.858 1.731 3.858 3.858-1.73 3.858-3.858 3.858z"/><path d="m58.707 54.27c-3.781 0-6.858 3.077-6.858 6.858s3.077 6.858 6.858 6.858 6.858-3.077 6.858-6.858-3.077-6.858-6.858-6.858zm0 10.716c-2.128 0-3.858-1.73-3.858-3.858s1.73-3.858 3.858-3.858 3.858 1.73 3.858 3.858-1.73 3.858-3.858 3.858z"/><path d="m43.078 55.833-6.121 7.286c-.533.635-.451 1.58.184 2.113.281.236.624.352.964.352.428 0 .853-.182 1.149-.535l6.121-7.286c.533-.635.451-1.58-.184-2.113-.635-.534-1.581-.452-2.113.183z"/><path d="m63.934 33.314c-.64-.527-1.585-.434-2.111.205l-14.647 17.795c-.526.64-.435 1.585.205 2.111.279.229.617.342.952.342.433 0 .862-.187 1.159-.547l14.646-17.795c.527-.639.435-1.584-.204-2.111z"/><path d="m86.484 42.934-4.76-3.193c-1.878-1.259-2.804-3.586-2.305-5.791l.934-4.128c.648-2.865-.204-5.816-2.281-7.894-2.078-2.078-5.026-2.934-7.896-2.283l-4.126.935c-2.203.497-4.532-.427-5.791-2.304l-3.192-4.759c-1.583-2.36-4.225-3.769-7.066-3.769s-5.483 1.409-7.066 3.769l-3.193 4.759c-1.259 1.877-3.585 2.802-5.791 2.304l-4.128-.934c-2.866-.648-5.817.205-7.895 2.282s-2.931 5.029-2.282 7.895l.934 4.128c.499 2.205-.427 4.531-2.304 5.791l-4.759 3.193c-2.36 1.583-3.769 4.224-3.769 7.066s1.409 5.483 3.769 7.066l4.759 3.192c1.877 1.259 2.803 3.586 2.304 5.791l-.934 4.127c-.648 2.866.205 5.817 2.283 7.896 2.077 2.076 5.027 2.932 7.894 2.281l4.128-.934c2.206-.495 4.532.427 5.791 2.305l3.193 4.76c1.583 2.359 4.224 3.768 7.066 3.768s5.483-1.408 7.066-3.768l3.192-4.76c1.26-1.878 3.595-2.802 5.791-2.305l4.127.934c2.864.649 5.817-.204 7.895-2.282 2.078-2.077 2.931-5.029 2.282-7.895l-.934-4.127c-.499-2.205.427-4.532 2.305-5.791l4.76-3.192c2.359-1.583 3.768-4.225 3.768-7.066s-1.409-5.484-3.769-7.067zm-1.671 11.64-4.76 3.192c-2.899 1.945-4.329 5.54-3.559 8.945l.934 4.127c.42 1.855-.133 3.766-1.478 5.111-1.346 1.345-3.257 1.898-5.111 1.478l-4.127-.934c-3.399-.771-6.999.659-8.945 3.559l-3.192 4.76c-1.04 1.551-2.707 2.439-4.574 2.439s-3.535-.889-4.575-2.439l-3.193-4.76c-1.594-2.376-4.295-3.766-7.092-3.766-.616 0-1.237.067-1.852.207l-4.128.934c-1.857.42-3.766-.132-5.111-1.478-1.345-1.345-1.898-3.256-1.478-5.111l.934-4.127c.771-3.405-.66-7-3.559-8.945l-4.759-3.192c-1.551-1.04-2.44-2.707-2.44-4.574s.889-3.535 2.44-4.575l4.759-3.193c2.9-1.944 4.33-5.539 3.559-8.944l-.934-4.128c-.419-1.855.133-3.766 1.478-5.111 1.344-1.345 3.257-1.897 5.111-1.478l4.128.934c3.404.769 7-.66 8.944-3.559l3.193-4.759c1.04-1.551 2.708-2.44 4.575-2.44s3.534.889 4.574 2.44l3.192 4.759c1.946 2.9 5.542 4.331 8.945 3.559l4.127-.934c1.854-.417 3.766.132 5.111 1.478 1.345 1.345 1.897 3.256 1.478 5.111l-.934 4.128c-.771 3.405.659 7 3.559 8.944l4.76 3.193c1.551 1.04 2.439 2.708 2.439 4.575s-.889 3.534-2.439 4.574z"/></g></svg>