<svg id="Outline" height="30" viewBox="0 0 48 48" width="30" xmlns="http://www.w3.org/2000/svg"><path d="m38 17.25h-4c-.41406 0-.75.33594-.75.75s.33594.75.75.75h2.08154l-4.12073 3.80389-.54919-3.80438c-.12402-.85498-.86865-1.49951-1.73193-1.49951h-.92969v-1.25c0-2.61914-2.13086-4.75-4.75-4.75s-4.75 2.13086-4.75 4.75v1.25h-.92969c-.86328 0-1.60791.64453-1.73193 1.5l-1.61993 11.22101-5.49872 5.49872c-.29295.29295-.29297.76753-.00005 1.0605.2785.27855.77403.28661 1.06059.00005l4.08026-4.08008s-.02264.15669-.02264.15674c-.23568 1.63131 1.07391 3.14306 2.72168 3.14306h13.38086c1.64702 0 2.95783-1.5107 2.72168-3.14258l-1.19122-8.25195 5.02911-4.64221v2.28674c0 .41406.33594.75.75.75s.75-.33594.75-.75v-4c0-.41406-.33594-.75-.75-.75zm-17.25-1.25c0-1.79199 1.45801-3.25 3.25-3.25s3.25 1.45801 3.25 3.25v1.25h-6.5zm-2.67725 2.96436c.01758-.12207.12402-.21436.24756-.21436h.92969v1.25c0 .41406.33594.75.75.75s.75-.33594.75-.75v-1.25h6.5v1.25c0 .41406.33594.75.75.75s.75-.33594.75-.75v-1.25h.92969c.12354 0 .22998.09229.24756.21387l.69641 4.82434-5.54065 5.11462s-3.49756-4.37158-3.49757-4.37159c-.27569-.34435-.80444-.37279-1.11571-.06151l-3.73029 3.73029zm13.85498 13.85742c.107.74121-.48903 1.42822-1.2373 1.42822 0 0-13.37402 0-13.38086 0-.74964 0-1.34419-.68659-1.23731-1.42871l.3092-2.14197 4.55652-4.55627s3.46662 4.33328 3.47654 4.34568c.26623.33279.78353.36846 1.09426.08255l5.37494-4.96149c.00001-.00001 1.0434 7.22772 1.04401 7.23199z"/></svg>