<svg id="Layer_1" enable-background="new 0 0 100 100" height="24" viewBox="0 0 100 100" width="24" xmlns="http://www.w3.org/2000/svg"><g><path d="m23.4 75.2h2v3.2h-2z"/><path d="m23.4 62.7h2v11h-2z"/><path d="m57.4 20.1c-2-2-4.6-3.1-7.4-3.1-5.8 0-10.5 4.7-10.5 10.5v4.7h-11.1c-.6 0-1 .4-1 1v44.8c0 2.8 2.2 5 5 5h35.2c2.8 0 5-2.2 5-5v-44.8c0-.6-.4-1-1-1h-11.1v-4.7c0-2.8-1.1-5.5-3.1-7.4zm-15.9 7.4c0-4.7 3.8-8.5 8.5-8.5s8.5 3.8 8.5 8.5v4.7h-17zm29.1 6.7v43.8c0 1.7-1.3 3-3 3h-35.2c-1.7 0-3-1.3-3-3v-43.8h10.1v3.6c-1.7.4-3 2-3 3.8 0 2.2 1.8 4 4 4s4-1.8 4-4c0-1.8-1.3-3.4-3-3.8v-3.6h16.9v3.6c-1.7.4-3 2-3 3.8 0 2.2 1.8 4 4 4s4-1.8 4-4c0-1.8-1.3-3.4-3-3.8v-3.6zm-30.1 5.4c1.1 0 2 .9 2 2s-.9 2-2 2-2-.9-2-2c.1-1.1 1-2 2-2zm19 0c1.1 0 2 .9 2 2s-.9 2-2 2-2-.9-2-2 .9-2 2-2z"/><path d="m50.9 44.2c-.2-.3-.5-.6-.9-.6s-.7.2-.9.6l-4 8-8.8 1.3c-.4.1-.7.3-.8.7s0 .8.3 1l6.4 6.2-1.5 8.8c-.1.4.1.8.4 1 .2.1.4.2.6.2s.3 0 .5-.1l7.9-4.2 7.9 4.2c.3.2.7.1 1.1-.1.3-.2.5-.6.4-1l-1.5-8.8 6.4-6.2c.3-.3.4-.7.3-1-.1-.4-.4-.6-.8-.7l-8.9-1.3zm5.2 16.2c-.2.2-.3.6-.3.9l1.3 7.3-6.6-3.5c-.3-.2-.6-.2-.9 0l-6.6 3.5 1.3-7.3c.1-.3-.1-.7-.3-.9l-5.3-5.2 7.4-1.1c.3 0 .6-.3.8-.5l3.3-6.7 3.3 6.7c.1.3.4.5.8.5l7.4 1.1z"/><path d="m74.6 41.3h2v3.2h-2z"/><path d="m74.6 46.2h2v11h-2z"/></g></svg>